<svg width="16" height="17" viewBox="0 0 16 17" fill="none" xmlns="http://www.w3.org/2000/svg">
<path fill-rule="evenodd" clip-rule="evenodd" d="M8.37476 4.00684C8.37476 3.79973 8.20686 3.63184 7.99976 3.63184C7.79265 3.63184 7.62476 3.79973 7.62476 4.00684V8.29852H3.33301C3.1259 8.29852 2.95801 8.46642 2.95801 8.67352C2.95801 8.88063 3.1259 9.04852 3.33301 9.04852H7.62476V13.3402C7.62476 13.5473 7.79265 13.7152 7.99976 13.7152C8.20686 13.7152 8.37476 13.5473 8.37476 13.3402V9.04852H12.6663C12.8734 9.04852 13.0413 8.88063 13.0413 8.67352C13.0413 8.46642 12.8734 8.29852 12.6663 8.29852H8.37476V4.00684Z" fill="#121212"/>
</svg>
