<svg width="12" height="12" viewBox="0 0 12 12" fill="none" xmlns="http://www.w3.org/2000/svg">
<path fill-rule="evenodd" clip-rule="evenodd" d="M11.4419 1.44194C11.686 1.19786 11.686 0.802136 11.4419 0.558058C11.1979 0.313981 10.8021 0.313981 10.5581 0.558058L6 5.11612L1.44194 0.558058C1.19786 0.313981 0.802136 0.313981 0.558058 0.558058C0.313981 0.802136 0.313981 1.19786 0.558058 1.44194L5.11612 6L0.558058 10.5581C0.313981 10.8021 0.313981 11.1979 0.558058 11.4419C0.802136 11.686 1.19786 11.686 1.44194 11.4419L6 6.88388L10.5581 11.4419C10.8021 11.686 11.1979 11.686 11.4419 11.4419C11.686 11.1979 11.686 10.8021 11.4419 10.5581L6.88388 6L11.4419 1.44194Z" fill="#343839"/>
</svg>
