<svg width="14" height="15" viewBox="0 0 14 15" fill="none" xmlns="http://www.w3.org/2000/svg">
<path d="M6.53834 1.28358C6.70914 0.872934 7.29086 0.872932 7.46166 1.28358L8.99874 4.97917C9.07075 5.15229 9.23355 5.27058 9.42045 5.28556L13.4102 5.60541C13.8535 5.64095 14.0332 6.19421 13.6955 6.48354L10.6557 9.0874C10.5133 9.20937 10.4512 9.40076 10.4947 9.58314L11.4234 13.4764C11.5265 13.909 11.0559 14.251 10.6764 14.0191L7.26063 11.9328C7.10062 11.8351 6.89938 11.8351 6.73937 11.9328L3.32363 14.0191C2.94408 14.251 2.47345 13.909 2.57665 13.4764L3.50534 9.58314C3.54884 9.40076 3.48665 9.20937 3.34426 9.0874L0.304527 6.48354C-0.0332418 6.19421 0.14652 5.64095 0.589847 5.60541L4.57955 5.28556C4.76645 5.27058 4.92925 5.15229 5.00126 4.97917L6.53834 1.28358Z" fill="#141718"/>
</svg>
