<svg width="20" height="16" viewBox="0 0 20 16" fill="none" xmlns="http://www.w3.org/2000/svg">
<path d="M9.48086 2.72273L10.0002 3.22107L10.5195 2.72273C11.3587 1.91739 12.496 1.42361 13.7502 1.42361C16.3275 1.42361 18.4168 3.51295 18.4168 6.09028C18.4168 8.44315 17.1345 10.3136 15.4746 11.7546C13.8142 13.1961 11.8542 14.1355 10.7033 14.6089C10.248 14.7962 9.75234 14.7962 9.29698 14.6089C8.14613 14.1355 6.18611 13.1961 4.52568 11.7546C2.86585 10.3136 1.5835 8.44316 1.5835 6.09028C1.5835 3.51295 3.67283 1.42361 6.25016 1.42361C7.50436 1.42361 8.64167 1.91739 9.48086 2.72273Z" fill="#CD3030" stroke="#6C7275" stroke-width="1.5"/>
</svg>
